<mxfile host="app.diagrams.net" modified="2024-01-08T06:04:14.492Z" agent="Mozilla/5.0 (Macintosh; Intel Mac OS X 10_15_7) AppleWebKit/537.36 (KHTML, like Gecko) Chrome/120.0.0.0 Safari/537.36 Edg/120.0.0.0" etag="nK0UZqtOxBV6e5cwXZNS" version="22.1.16" type="github">
  <diagram name="第 1 页" id="fnUhyGsoiNcezvq9pX6R">
    <mxGraphModel dx="2534" dy="1126" grid="1" gridSize="10" guides="1" tooltips="1" connect="1" arrows="1" fold="1" page="1" pageScale="1" pageWidth="827" pageHeight="1169" math="0" shadow="0">
      <root>
        <mxCell id="0" />
        <mxCell id="1" parent="0" />
        <mxCell id="3RE091t_g2rGld83odUV-13" style="edgeStyle=orthogonalEdgeStyle;rounded=0;orthogonalLoop=1;jettySize=auto;html=1;exitX=1;exitY=0.5;exitDx=0;exitDy=0;" edge="1" parent="1" source="3RE091t_g2rGld83odUV-12" target="3RE091t_g2rGld83odUV-1">
          <mxGeometry relative="1" as="geometry">
            <Array as="points">
              <mxPoint x="580" y="830" />
              <mxPoint x="580" y="270" />
            </Array>
          </mxGeometry>
        </mxCell>
        <mxCell id="3RE091t_g2rGld83odUV-14" style="edgeStyle=orthogonalEdgeStyle;rounded=0;orthogonalLoop=1;jettySize=auto;html=1;exitX=0.5;exitY=1;exitDx=0;exitDy=0;entryX=0.5;entryY=0;entryDx=0;entryDy=0;" edge="1" parent="1" source="3RE091t_g2rGld83odUV-1" target="3RE091t_g2rGld83odUV-2">
          <mxGeometry relative="1" as="geometry" />
        </mxCell>
        <mxCell id="3RE091t_g2rGld83odUV-1" value="NOT_LOADED" style="rounded=0;whiteSpace=wrap;html=1;" vertex="1" parent="1">
          <mxGeometry x="160" y="240" width="180" height="60" as="geometry" />
        </mxCell>
        <mxCell id="3RE091t_g2rGld83odUV-15" style="edgeStyle=orthogonalEdgeStyle;rounded=0;orthogonalLoop=1;jettySize=auto;html=1;exitX=0.5;exitY=1;exitDx=0;exitDy=0;entryX=0.5;entryY=0;entryDx=0;entryDy=0;" edge="1" parent="1" source="3RE091t_g2rGld83odUV-2" target="3RE091t_g2rGld83odUV-4">
          <mxGeometry relative="1" as="geometry" />
        </mxCell>
        <mxCell id="3RE091t_g2rGld83odUV-24" style="edgeStyle=orthogonalEdgeStyle;rounded=0;orthogonalLoop=1;jettySize=auto;html=1;exitX=0;exitY=0.5;exitDx=0;exitDy=0;entryX=1;entryY=0.5;entryDx=0;entryDy=0;" edge="1" parent="1" source="3RE091t_g2rGld83odUV-2" target="3RE091t_g2rGld83odUV-3">
          <mxGeometry relative="1" as="geometry" />
        </mxCell>
        <mxCell id="3RE091t_g2rGld83odUV-2" value="LOADING_SOURCE_CODE" style="rounded=0;whiteSpace=wrap;html=1;" vertex="1" parent="1">
          <mxGeometry x="160" y="320" width="180" height="60" as="geometry" />
        </mxCell>
        <mxCell id="3RE091t_g2rGld83odUV-3" value="LOAD_ERR" style="rounded=0;whiteSpace=wrap;html=1;fillColor=#FF3333;" vertex="1" parent="1">
          <mxGeometry x="-60" y="320" width="180" height="60" as="geometry" />
        </mxCell>
        <mxCell id="3RE091t_g2rGld83odUV-16" style="edgeStyle=orthogonalEdgeStyle;rounded=0;orthogonalLoop=1;jettySize=auto;html=1;exitX=0.5;exitY=1;exitDx=0;exitDy=0;entryX=0.5;entryY=0;entryDx=0;entryDy=0;" edge="1" parent="1" source="3RE091t_g2rGld83odUV-4" target="3RE091t_g2rGld83odUV-5">
          <mxGeometry relative="1" as="geometry" />
        </mxCell>
        <mxCell id="3RE091t_g2rGld83odUV-4" value="NOT_BOOTSTRAPPED" style="rounded=0;whiteSpace=wrap;html=1;" vertex="1" parent="1">
          <mxGeometry x="160" y="400" width="180" height="60" as="geometry" />
        </mxCell>
        <mxCell id="3RE091t_g2rGld83odUV-17" style="edgeStyle=orthogonalEdgeStyle;rounded=0;orthogonalLoop=1;jettySize=auto;html=1;exitX=0.5;exitY=1;exitDx=0;exitDy=0;entryX=0.5;entryY=0;entryDx=0;entryDy=0;" edge="1" parent="1" source="3RE091t_g2rGld83odUV-5" target="3RE091t_g2rGld83odUV-7">
          <mxGeometry relative="1" as="geometry" />
        </mxCell>
        <mxCell id="3RE091t_g2rGld83odUV-5" value="BOOTSTRAPPING" style="rounded=0;whiteSpace=wrap;html=1;" vertex="1" parent="1">
          <mxGeometry x="160" y="480" width="180" height="60" as="geometry" />
        </mxCell>
        <mxCell id="3RE091t_g2rGld83odUV-6" value="SKIP_BECAUSE_BROKEN" style="rounded=0;whiteSpace=wrap;html=1;fillColor=#FF3333;" vertex="1" parent="1">
          <mxGeometry x="-60" y="480" width="180" height="60" as="geometry" />
        </mxCell>
        <mxCell id="3RE091t_g2rGld83odUV-18" style="edgeStyle=orthogonalEdgeStyle;rounded=0;orthogonalLoop=1;jettySize=auto;html=1;exitX=0.5;exitY=1;exitDx=0;exitDy=0;" edge="1" parent="1" source="3RE091t_g2rGld83odUV-7" target="3RE091t_g2rGld83odUV-8">
          <mxGeometry relative="1" as="geometry" />
        </mxCell>
        <mxCell id="3RE091t_g2rGld83odUV-7" value="NOT_MOUNTED" style="rounded=0;whiteSpace=wrap;html=1;" vertex="1" parent="1">
          <mxGeometry x="160" y="560" width="180" height="60" as="geometry" />
        </mxCell>
        <mxCell id="3RE091t_g2rGld83odUV-19" style="edgeStyle=orthogonalEdgeStyle;rounded=0;orthogonalLoop=1;jettySize=auto;html=1;exitX=0.5;exitY=1;exitDx=0;exitDy=0;entryX=0.5;entryY=0;entryDx=0;entryDy=0;" edge="1" parent="1" source="3RE091t_g2rGld83odUV-8" target="3RE091t_g2rGld83odUV-9">
          <mxGeometry relative="1" as="geometry" />
        </mxCell>
        <mxCell id="3RE091t_g2rGld83odUV-8" value="MOUNTING" style="rounded=0;whiteSpace=wrap;html=1;" vertex="1" parent="1">
          <mxGeometry x="160" y="640" width="180" height="60" as="geometry" />
        </mxCell>
        <mxCell id="3RE091t_g2rGld83odUV-20" style="edgeStyle=orthogonalEdgeStyle;rounded=0;orthogonalLoop=1;jettySize=auto;html=1;exitX=1;exitY=0.5;exitDx=0;exitDy=0;entryX=0;entryY=0.5;entryDx=0;entryDy=0;" edge="1" parent="1" source="3RE091t_g2rGld83odUV-9" target="3RE091t_g2rGld83odUV-11">
          <mxGeometry relative="1" as="geometry" />
        </mxCell>
        <mxCell id="3RE091t_g2rGld83odUV-21" style="edgeStyle=orthogonalEdgeStyle;rounded=0;orthogonalLoop=1;jettySize=auto;html=1;exitX=0;exitY=0.25;exitDx=0;exitDy=0;entryX=1;entryY=0.25;entryDx=0;entryDy=0;" edge="1" parent="1" source="3RE091t_g2rGld83odUV-9" target="3RE091t_g2rGld83odUV-10">
          <mxGeometry relative="1" as="geometry" />
        </mxCell>
        <mxCell id="3RE091t_g2rGld83odUV-9" value="MOUNTED" style="rounded=0;whiteSpace=wrap;html=1;" vertex="1" parent="1">
          <mxGeometry x="160" y="720" width="180" height="60" as="geometry" />
        </mxCell>
        <mxCell id="3RE091t_g2rGld83odUV-22" style="edgeStyle=orthogonalEdgeStyle;rounded=0;orthogonalLoop=1;jettySize=auto;html=1;exitX=1;exitY=0.75;exitDx=0;exitDy=0;entryX=0;entryY=0.75;entryDx=0;entryDy=0;" edge="1" parent="1" source="3RE091t_g2rGld83odUV-10" target="3RE091t_g2rGld83odUV-9">
          <mxGeometry relative="1" as="geometry" />
        </mxCell>
        <mxCell id="3RE091t_g2rGld83odUV-10" value="UPDATING" style="rounded=0;whiteSpace=wrap;html=1;" vertex="1" parent="1">
          <mxGeometry x="-60" y="720" width="180" height="60" as="geometry" />
        </mxCell>
        <mxCell id="3RE091t_g2rGld83odUV-23" style="edgeStyle=orthogonalEdgeStyle;rounded=0;orthogonalLoop=1;jettySize=auto;html=1;exitX=0.5;exitY=1;exitDx=0;exitDy=0;entryX=0.5;entryY=0;entryDx=0;entryDy=0;" edge="1" parent="1" source="3RE091t_g2rGld83odUV-11" target="3RE091t_g2rGld83odUV-12">
          <mxGeometry relative="1" as="geometry" />
        </mxCell>
        <mxCell id="3RE091t_g2rGld83odUV-26" style="edgeStyle=orthogonalEdgeStyle;rounded=0;orthogonalLoop=1;jettySize=auto;html=1;exitX=0.5;exitY=0;exitDx=0;exitDy=0;entryX=1;entryY=0.5;entryDx=0;entryDy=0;" edge="1" parent="1" source="3RE091t_g2rGld83odUV-11" target="3RE091t_g2rGld83odUV-7">
          <mxGeometry relative="1" as="geometry" />
        </mxCell>
        <mxCell id="3RE091t_g2rGld83odUV-11" value="UNMOUNTING" style="rounded=0;whiteSpace=wrap;html=1;" vertex="1" parent="1">
          <mxGeometry x="380" y="720" width="180" height="60" as="geometry" />
        </mxCell>
        <mxCell id="3RE091t_g2rGld83odUV-12" value="UNLOADING" style="rounded=0;whiteSpace=wrap;html=1;" vertex="1" parent="1">
          <mxGeometry x="380" y="800" width="180" height="60" as="geometry" />
        </mxCell>
        <mxCell id="3RE091t_g2rGld83odUV-25" value="&lt;font style=&quot;font-size: 18px;&quot;&gt;&lt;b&gt;代码出错&lt;/b&gt;&lt;/font&gt;" style="text;html=1;strokeColor=none;fillColor=none;align=center;verticalAlign=middle;whiteSpace=wrap;rounded=0;" vertex="1" parent="1">
          <mxGeometry x="-10" y="440" width="80" height="30" as="geometry" />
        </mxCell>
      </root>
    </mxGraphModel>
  </diagram>
</mxfile>
